<?xml version="1.0" standalone="no"?>
<!DOCTYPE svg PUBLIC "-//W3C//DTD SVG 1.1//EN" "http://www.w3.org/Graphics/SVG/1.1/DTD/svg11.dtd" >
<svg xmlns="http://www.w3.org/2000/svg">
<metadata></metadata>
<defs>
<font id="essairegular" horiz-adv-x="1024" >
<font-face units-per-em="2048" ascent="1638" descent="-410" />
<missing-glyph horiz-adv-x="606" />
<glyph horiz-adv-x="2048" />
<glyph horiz-adv-x="2048" />
<glyph unicode="&#xd;" horiz-adv-x="606" />
<glyph unicode=" "  horiz-adv-x="606" />
<glyph unicode="&#x09;" horiz-adv-x="606" />
<glyph unicode="&#xa0;" horiz-adv-x="606" />
<glyph unicode="!" horiz-adv-x="845" d="M166 1288h27q51 0 72.5 -18.5t23.5 -67.5l35 -776h200l37 879q4 119 -129 118h-266v-135zM254 131q0 -133 176 -133t176 133q0 131 -176 131t-176 -131z" />
<glyph unicode="&#x22;" horiz-adv-x="677" d="M80 879v559h192v-559h-192zM406 879v559h192v-559h-192z" />
<glyph unicode="#" horiz-adv-x="1574" d="M45 406l76 200h282l86 242h-299l74 201h297l148 415h221l-146 -415h242l148 415h221l-148 -415h283l-74 -201h-280l-84 -242h290l-71 -200h-291l-148 -416h-221l148 416h-244l-149 -416h-220l146 416h-287zM621 606h251l86 242h-249z" />
<glyph unicode="$" horiz-adv-x="1214" d="M152 1042q0 162 107 262.5t308 120.5v17q0 86 -96 86h-25v74h99q129 0 129 -119v-53q174 -4 348 -52l-25 -209q-145 72 -323 72v-387q436 -131 436 -430q0 -170 -118 -282.5t-326 -139.5v-174h-107v172h-20q-190 0 -365 57l23 232q184 -86 362 -86v436q-408 113 -407 403 zM399 1069q0 -129 168 -186v352q-168 -35 -168 -166zM666 211q188 29 188 190q0 137 -188 207v-397z" />
<glyph unicode="%" horiz-adv-x="1853" d="M76 1053q0 184 93 291.5t249 107.5t250 -107.5t94 -291.5q0 -182 -94.5 -291t-249.5 -109q-154 0 -248 108.5t-94 291.5zM283 1053q0 -252 135 -252q137 0 137 252t-135 252q-137 0 -137 -252zM467 -29l754 1481h172l-754 -1481h-172zM1096 371q0 186 94 292.5t250 106.5 t250 -106.5t94 -292.5q0 -182 -94.5 -291t-249.5 -109q-156 0 -250 107.5t-94 292.5zM1303 371q0 -252 137 -252t137 252t-137 252t-137 -252z" />
<glyph unicode="&#x26;" horiz-adv-x="1490" d="M111 395q0 262 290 393q-170 170 -170 330q0 164 140 254q119 78 293 78q172 0 282 -76q129 -88 129 -252q0 -240 -321 -381l297 -313q84 109 84 156q0 55 -37 73q-23 12 -86 13v135h215q53 0 91 -26.5t38 -78.5q0 -6 2 -22v-23q0 -88 -53 -204q-45 -104 -111 -185 l270 -266h-309l-117 127q-170 -152 -424 -152q-211 0 -350 103q-154 113 -153 317zM369 401q0 -106 84 -174q78 -63 186 -63q145 0 256 110l-354 373q-172 -94 -172 -246zM475 1110q0 -99 152 -238q215 98 215 232q0 76 -52.5 118t-130.5 42q-76 0 -127 -39 q-57 -43 -57 -115z" />
<glyph unicode="'" horiz-adv-x="352" d="M80 879v559h192v-559h-192z" />
<glyph unicode="(" horiz-adv-x="722" d="M137 637q0 469 330 909h203q-289 -457 -289 -909q0 -449 289 -907h-203q-330 440 -330 907z" />
<glyph unicode=")" horiz-adv-x="722" d="M53 -270q289 461 289 907q0 448 -289 909h201q332 -442 332 -909q0 -465 -332 -907h-201z" />
<glyph unicode="*" d="M90 1141l64 200l309 -157l-53 342h204l-53 -342l307 157l66 -200l-342 -54l246 -243l-170 -125l-156 313l-156 -313l-170 125l246 243z" />
<glyph unicode="+" horiz-adv-x="1705" d="M254 512v199h498v510h202v-510h498v-199h-498v-512h-202v512h-498z" />
<glyph unicode="," horiz-adv-x="606" d="M76 -240l129 504h266l-182 -504h-213z" />
<glyph unicode="-" horiz-adv-x="692" d="M82 471v209h526v-209h-526z" />
<glyph unicode="." horiz-adv-x="606" d="M170 0v266h266v-266h-266z" />
<glyph unicode="/" horiz-adv-x="569" d="M-104 -190l540 1642h182l-544 -1642h-178z" />
<glyph unicode="0" horiz-adv-x="1214" d="M96 711q0 365 131 553t379 188t379 -188.5t131 -552.5q0 -365 -131 -552.5t-379 -187.5t-379 187.5t-131 552.5zM367 715q0 -543 241 -543q238 0 238 530q0 553 -240 553t-239 -540z" />
<glyph unicode="1" horiz-adv-x="1214" d="M174 1120l416 301h223v-1421h-258v1130l-248 -190z" />
<glyph unicode="2" horiz-adv-x="1214" d="M121 0v215q334 303 471 471q164 201 164 342q0 88 -66.5 143.5t-177.5 55.5q-160 0 -334 -101l-16 234q225 90 403 90q211 0 338 -112.5t127 -284.5q0 -180 -147 -389q-131 -187 -428 -455h610v-209h-944z" />
<glyph unicode="3" horiz-adv-x="1214" d="M96 41l21 233q135 -74 311 -73q160 0 253 66.5t93 170.5q0 195 -287 195h-161v198h157q131 0 207 53.5t76 141.5q0 86 -79 143.5t-212 57.5q-150 0 -307 -66l-14 221q100 23 200 48q111 23 187 22q229 0 362 -111.5t133 -283.5q0 -115 -71.5 -198t-202.5 -116 q295 -66 295 -327q0 -190 -158 -307q-164 -121 -442 -121q-184 0 -361 53z" />
<glyph unicode="4" horiz-adv-x="1214" d="M55 299v242l445 659q8 16 8 31q0 55 -131 55v135h465q129 0 129 -118v-803h200v-201h-200v-299h-260v299h-656zM262 500h449l10 694z" />
<glyph unicode="5" horiz-adv-x="1214" d="M164 41v238q143 -78 317 -78q156 0 245 73.5t89 196.5q0 111 -91 181.5t-247 70.5q-109 0 -297 -43l10 741h844v-196h-594l-8 -326q94 16 152 16q240 0 374 -118.5t134 -323.5q0 -221 -161 -354t-435 -133q-166 0 -332 55z" />
<glyph unicode="6" horiz-adv-x="1214" d="M123 662q0 375 167 577.5t468 202.5q153 0 309 -51l-23 -220q-123 68 -266 68q-190 0 -294.5 -129t-104.5 -367q117 164 321 164q184 0 306 -127t122 -321q0 -207 -140 -347.5t-345 -140.5q-248 0 -384 178.5t-136 512.5zM403 434q0 -117 64.5 -190.5t167.5 -73.5 q100 0 164.5 70.5t64.5 187.5q0 125 -64.5 201t-168.5 76q-98 0 -163 -75t-65 -196z" />
<glyph unicode="7" horiz-adv-x="1214" d="M102 1094v198q0 129 119 129h834v-231l-529 -1190h-301l555 1214h-456q-86 0 -86 -96v-24h-136z" />
<glyph unicode="8" horiz-adv-x="1214" d="M92 383q0 125 82 220t227 134q-260 104 -260 353q0 160 132.5 260t353.5 100q205 0 331 -100q121 -96 121 -248q0 -237 -264 -352q307 -115 307 -373q0 -180 -141 -293t-383 -113q-229 0 -367.5 116t-138.5 296zM354 395q0 -94 72 -160.5t178 -66.5q109 0 178.5 65.5 t69.5 165.5q0 158 -264 252q-233 -92 -234 -256zM391 1065q1 -150 232 -240q207 104 206 250q0 80 -58 134.5t-148 54.5q-104 0 -168 -56.5t-64 -142.5z" />
<glyph unicode="9" horiz-adv-x="1214" d="M106 965q0 207 140.5 347t345.5 140q248 0 384 -179t136 -513q0 -373 -167 -576.5t-468 -203.5q-153 0 -309 53l22 217q119 -66 267 -66q190 0 293.5 127t105.5 367q-115 -162 -321 -162q-186 0 -307.5 127t-121.5 322zM371 989q0 -123 63.5 -196.5t163.5 -73.5 q104 0 168.5 74.5t64.5 203.5q0 111 -63.5 183.5t-157.5 72.5q-106 0 -172.5 -73.5t-66.5 -190.5z" />
<glyph unicode=":" horiz-adv-x="608" d="M131 131q0 -133 176 -133t176 133q0 131 -176 131t-176 -131zM131 909q0 -133 176 -133t176 133q0 131 -176 131t-176 -131z" />
<glyph unicode=";" horiz-adv-x="608" d="M72 -240l129 504h266l-182 -504h-213zM152 909q0 -133 176 -133t176 133q0 131 -176 131t-176 -131z" />
<glyph unicode="&#x3c;" horiz-adv-x="1705" d="M264 512v199l1178 483v-219l-893 -365l893 -364v-219z" />
<glyph unicode="=" horiz-adv-x="1705" d="M254 297v199h1198v-199h-1198zM254 727v199h1198v-199h-1198z" />
<glyph unicode="&#x3e;" horiz-adv-x="1705" d="M264 27v219l895 364l-895 365v219l1178 -483v-199z" />
<glyph unicode="?" horiz-adv-x="1091" d="M121 1393q172 53 334 53q221 0 348 -98.5t127 -260.5q0 -92 -49 -180q-33 -61 -125 -172q-82 -98 -111 -147q-43 -72 -43 -144q0 -4 2 -12v-12h-225q-2 16 -2 49q0 121 98 252q66 82 128.5 166t62.5 160q0 88 -69 142t-187 54q-123 0 -283 -65zM295 131q0 -133 176 -133 t176 133q0 131 -176 131t-176 -131z" />
<glyph unicode="@" horiz-adv-x="2048" d="M90 520q0 342 207 594q299 367 819 367q350 0 576 -174q268 -207 268 -543q0 -340 -254 -543q-143 -115 -324 -115q-211 0 -215 166q-106 -164 -297 -163q-324 0 -323 340q0 242 140 402.5t343 160.5q160 0 236 -131l53 98h178l-147 -598q-6 -25 -7 -41q0 -70 95 -70 q82 0 161 76q174 164 175 422q0 238 -181 391q-186 158 -483 158q-352 0 -590 -217q-246 -225 -246 -578q0 -307 207 -490.5t553 -183.5q332 0 604 191l82 -117q-309 -231 -682 -231q-389 0 -639 192q-309 238 -309 637zM760 444q0 -188 158 -188q82 0 151.5 61.5 t93.5 165.5l54 217q-25 166 -175 166q-113 0 -197.5 -124t-84.5 -298z" />
<glyph unicode="A" horiz-adv-x="1394" d="M-10 0q463 1190 473 1225q2 8 2 14q0 48 -154 48q-17 0 -37 -1v135h523q55 0 86 -35q18 -23 43 -83l504 -1303h-302l-118 336h-619l-123 -336h-278zM469 545h467l-229 639z" />
<glyph unicode="B" horiz-adv-x="1259" d="M0 1290v131h629q499 0 499 -367q0 -245 -264 -315q303 -63 303 -344q0 -395 -549 -395h-460v1231q0 59 -62 59h-96zM434 207h150q299 0 299 215q0 209 -279 209h-170v-424zM434 829h133q281 0 281 195q0 197 -264 197h-150v-392z" />
<glyph unicode="C" horiz-adv-x="1316" d="M96 702q0 334 211 542t565 208q66 0 138 -14q51 -8 125 -31q98 -27 112 -31l-18 -225q-219 82 -330 82q-233 0 -373.5 -145.5t-140.5 -385.5q0 -225 143.5 -368.5t382.5 -143.5q66 0 160 29q82 27 162 53l24 -225q-92 -25 -184 -51q-106 -25 -186 -25q-373 0 -584 203 q-207 197 -207 528z" />
<glyph unicode="D" horiz-adv-x="1474" d="M158 0v1421h407q358 0 520 -102q305 -193 306 -606q0 -410 -310 -604q-172 -109 -538 -109h-385zM440 219h162q236 0 367 131t131 367q0 240 -130 366.5t-376 126.5h-154v-991z" />
<glyph unicode="E" horiz-adv-x="1165" d="M37 1288v133h860q129 0 129 -118v-86h-588v-377h557v-209h-557v-416h609v-215h-889v1202q0 57 -35 74q-23 12 -86 12z" />
<glyph unicode="F" horiz-adv-x="1050" d="M37 1288v133h860q129 0 129 -118v-86l-586 -3l586 3l-586 -3v-387h521v-209h-521v-618h-282v1202q0 55 -35 74q-25 12 -86 12z" />
<glyph unicode="G" horiz-adv-x="1513" d="M102 705q0 342 216.5 544.5t599.5 202.5q80 0 198 -27q103 -24 205 -49l-29 -223q-248 86 -364 86q-240 0 -388.5 -151.5t-148.5 -385.5q0 -223 141.5 -367.5t374.5 -144.5q45 0 185 43v363h-162q-86 0 -86 -96v-27h-135v195q0 129 118 129h529v-734q-276 -92 -457 -92 q-373 0 -585 199t-212 535z" />
<glyph unicode="H" horiz-adv-x="1431" d="M37 1286v135h272q129 0 129 -118v-457h553v575h281v-1421h-281v629h-553v-629h-280v1200q0 86 -97 86h-24z" />
<glyph unicode="I" horiz-adv-x="598" d="M37 1286v135h272q129 0 129 -118v-1303h-280v1200q0 86 -97 86h-24z" />
<glyph unicode="J" horiz-adv-x="811" d="M18 6v238q68 -27 129 -27q145 0 195 111q29 67 29 239v633q0 57 -35 74q-23 12 -86 12v135h272q129 0 129 -118v-801q0 -256 -88 -379q-104 -143 -348 -143q-94 0 -197 26z" />
<glyph unicode="K" horiz-adv-x="1294" d="M37 1286v135h272q129 0 129 -118v-502l523 620h321l-586 -659l641 -762h-354l-545 680v-680h-280v1200q0 57 -35 74q-23 12 -86 12z" />
<glyph unicode="L" horiz-adv-x="1032" d="M37 1286v135h272q129 0 129 -118v-1086h570v-217h-850v1200q0 57 -35 74q-23 12 -86 12z" />
<glyph unicode="M" horiz-adv-x="1939" d="M-33 1286v135h529q88 0 129 -118l303 -869q29 -84 41 -235q10 154 39 235l356 987h420v-1421h-268v1051q0 125 18 254q-37 -156 -55 -207l-398 -1098h-250l-389 1087q-31 86 -53 218q16 -213 17 -256v-1049h-248v1200q0 86 -97 86h-94z" />
<glyph unicode="N" horiz-adv-x="1503" d="M-18 1286v135h460q53 0 84 -37q6 -8 45 -81l461 -875q35 -65 94 -258q-34 195 -34 319v7v925h254v-1421h-347l-538 1016q-43 80 -84 246q35 -264 35 -340v-922h-254v1200q0 70 -60 84q-12 2 -116 2z" />
<glyph unicode="O" horiz-adv-x="1538" d="M96 711q0 348 179.5 544.5t492.5 196.5t493.5 -197.5t180.5 -543.5t-180.5 -543t-493.5 -197t-492.5 195.5t-179.5 544.5zM381 715q0 -242 107.5 -385.5t279.5 -143.5t280.5 143.5t108.5 385.5t-108.5 384t-280.5 142t-279.5 -142.5t-107.5 -383.5z" />
<glyph unicode="P" horiz-adv-x="1171" d="M160 121v1300h422q542 0 542 -440q0 -225 -159 -340q-139 -100 -373 -100h-152v-318q0 -57 35 -73q23 -12 86 -13v-137h-272q-129 0 -129 121zM440 741h115q283 0 283 238q0 242 -267 242h-131v-480z" />
<glyph unicode="Q" horiz-adv-x="1538" d="M96 711q0 348 179.5 544.5t492.5 196.5t493.5 -197.5t180.5 -543.5q0 -307 -143.5 -497.5t-397.5 -231.5v-37q0 -86 96 -86h88v-135h-317q-129 0 -129 118v140q-256 39 -399.5 229t-143.5 500zM381 715q0 -242 107.5 -385.5t279.5 -143.5t280.5 143.5t108.5 385.5 t-108.5 384t-280.5 142t-279.5 -142.5t-107.5 -383.5z" />
<glyph unicode="R" horiz-adv-x="1249" d="M158 1421h465q520 0 520 -366q0 -283 -297 -346q74 -23 119 -84q27 -37 63 -131l197 -494h-295q-51 145 -160 430q-41 104 -104 139q-49 27 -166 27h-66l6 -373q0 -57 37 -76q21 -10 68 -10h16v-137h-272q-129 0 -129 121zM434 795h144q284 0 284 213q0 215 -305 215 h-123v-428z" />
<glyph unicode="S" horiz-adv-x="1144" d="M-121 -29q14 78 45 232q10 49 54.5 78.5t95.5 29.5q35 0 73 -16q84 -37 170 -72q98 -37 179 -37q96 0 168 43q86 49 86 142q0 100 -160 192q-281 160 -299 174q-160 125 -160 312q0 201 166 309q141 94 354 94q74 0 170 -22q82 -23 166 -46l-24 -223q-156 72 -314 72 q-239 0 -239 -157q0 -91 163 -177q264 -141 304 -172q164 -127 163 -313q0 -213 -170 -336q-152 -111 -374 -111q-115 0 -375 84q-25 8 -35 8q-45 0 -74 -112z" />
<glyph unicode="T" horiz-adv-x="1077" d="M23 1202v219h1034v-219h-379v-981q0 -57 35 -74q23 -12 86 -12v-135h-273q-129 0 -129 119v1083h-374z" />
<glyph unicode="U" horiz-adv-x="1443" d="M29 1286v135h272q129 0 129 -118v-715q0 -399 287 -400q301 0 301 410v823h264v-825q0 -625 -569 -625q-563 0 -563 613v616q0 57 -35 74q-25 12 -86 12z" />
<glyph unicode="V" horiz-adv-x="1501" d="M29 1288v133h338q92 0 129 -116l338 -1057l376 1173h285l-506 -1421h-340l-416 1202q-18 51 -30 66q-18 20 -66 20h-108z" />
<glyph unicode="W" horiz-adv-x="2148" d="M59 1286v135h318q104 0 129 -118l199 -947q10 -47 26 -219q6 139 23 213l233 1071h359l237 -1069q12 -51 27 -215q6 119 24 207l234 1077h262l-348 -1421h-357l-241 1094q-14 70 -25 202q-8 -129 -24 -202l-238 -1094h-354l-293 1200q-12 49 -30.5 67.5t-65.5 18.5h-95z " />
<glyph unicode="X" horiz-adv-x="1345" d="M0 1286v135h326q51 0 80 -35q4 -4 49 -83l235 -416l295 534h305l-446 -676l493 -745h-329l-342 590l-349 -590h-309l500 745l-303 455q-33 47 -47 62q-28 24 -67 24h-3h-88z" />
<glyph unicode="Y" horiz-adv-x="1331" d="M35 1286v135h276q51 0 82 -35q6 -8 47 -83l285 -523l346 641h303l-520 -858v-563h-281v559l-385 641q-16 31 -34 64q-17 22 -58 22h-4h-57z" />
<glyph unicode="Z" horiz-adv-x="1167" d="M78 0v246l721 964h-477q-57 0 -74 -34q-12 -23 -12 -86h-136v202q0 129 119 129h873v-233l-727 -973h735v-215h-1022z" />
<glyph unicode="[" horiz-adv-x="737" d="M193 -270v1814h434v-170h-213v-1474h213v-170h-434z" />
<glyph unicode="\" horiz-adv-x="569" d="M-49 1452h182l541 -1642h-180z" />
<glyph unicode="]" horiz-adv-x="737" d="M109 -100h215v1474h-215v170h436v-1814h-436v170z" />
<glyph unicode="^" horiz-adv-x="2048" d="M416 899l481 561h252l481 -561h-235l-371 371l-373 -371h-235z" />
<glyph unicode="_" d="M0 -279h1024v-204h-1024v204z" />
<glyph unicode="`" d="M233 1538h234l199 -360h-127z" />
<glyph unicode="a" horiz-adv-x="1153" d="M78 301q0 236 248 309q127 37 436 37v15q0 223 -256 223q-139 0 -297 -84l-4 190q182 74 364 74q233 0 340 -113q86 -90 105 -280q4 -45 4 -367q0 -113 10 -131q18 -39 113 -39v-135h-232q-125 0 -129 119l-2 49q-133 -195 -352 -195q-152 0 -250 89.5t-98 238.5z M340 315q0 -72 49 -112.5t121 -40.5q115 0 184 84q68 77 68 194v56h-94q-328 0 -328 -181z" />
<glyph unicode="b" horiz-adv-x="1300" d="M31 1397v135h260q129 0 129 -119v-530q117 182 342 182q215 0 336 -160q108 -144 108 -364q0 -225 -108 -381q-123 -176 -336 -176q-250 0 -369 225v-209h-241v1311q0 57 -35 73q-23 12 -86 13zM420 524q0 -137 59 -229q70 -106 199 -107q125 0 192 107q58 90 58 223 q0 135 -54 230q-62 116 -186 116h-2q-135 0 -205 -106q-61 -92 -61 -234z" />
<glyph unicode="c" horiz-adv-x="1003" d="M86 528q0 229 154.5 383t400.5 154q68 0 287 -53l-21 -209q-135 53 -209 53q-152 0 -242.5 -93t-90.5 -241q0 -150 91 -245t238 -95q100 0 230 68l10 -213q-186 -63 -291 -64q-256 0 -406.5 151.5t-150.5 403.5z" />
<glyph unicode="d" horiz-adv-x="1300" d="M94 537q0 217 105 362q119 166 327 166q234 0 355 -182l2 428q0 55 -33 73q-25 12 -90 13v135h258q129 0 129 -119v-1413h-240v209q-127 -225 -375 -225q-209 0 -331 178q-106 156 -107 375zM371 524q0 -158 67.5 -247t182.5 -89q117 0 187.5 90.5t70.5 245.5 q0 160 -72 250t-193 90q-106 0 -174.5 -92t-68.5 -248z" />
<glyph unicode="e" horiz-adv-x="1128" d="M84 537q0 236 142.5 382t371.5 146q225 0 351 -140.5t126 -394.5v-84h-731q10 -131 101.5 -206.5t238.5 -75.5q162 0 305 76v-205q-152 -61 -352 -62q-260 0 -406.5 149.5t-146.5 414.5zM344 612h490q-10 133 -74 206t-164 73q-102 0 -170 -73t-82 -206z" />
<glyph unicode="f" horiz-adv-x="798" d="M43 840v198h217v133q0 381 367 381q86 0 159 -20l-14 -195q-57 20 -96 21q-115 0 -141 -115q-10 -39 -11 -205h246v-198h-246v-840h-135q-129 0 -129 119v721h-217z" />
<glyph unicode="g" horiz-adv-x="1286" d="M90 528q0 240 125 388.5t322 148.5q231 0 360 -205v178h248v-911q0 -573 -578 -573q-186 0 -364 65l16 215q168 -84 324 -84q160 0 251 88t91 246v113q-137 -193 -346 -193q-201 0 -325 143.5t-124 380.5zM373 541q0 -154 68.5 -242t179.5 -88q109 0 181 88t72 229 q0 156 -69.5 245t-186.5 89q-109 0 -177 -87t-68 -234z" />
<glyph unicode="h" horiz-adv-x="1273" d="M35 1397v135h258q129 0 129 -119v-530q113 182 346 182q371 0 371 -447v-618h-269v561q0 281 -204 281q-125 0 -189 -105q-55 -88 -55 -221v-516h-266v1311q0 57 -37 75q-22 11 -69 11h-15z" />
<glyph unicode="i" horiz-adv-x="569" d="M31 903v135h258q129 0 129 -118v-920h-264v817q0 86 -97 86h-26zM111 1380q0 131 176 131t176 -131q0 -133 -176 -133t-176 133z" />
<glyph unicode="j" horiz-adv-x="569" d="M-70 -428l11 184q31 -6 63 -6q96 0 127 78q20 47 21 160v829q0 55 -35 74q-25 12 -86 12v135h258q129 0 129 -118v-947q0 -417 -320 -417h-2q-92 0 -166 16zM111 1380q0 131 176 131t176 -131q0 -133 -176 -133t-176 133z" />
<glyph unicode="k" horiz-adv-x="1116" d="M35 1397v135h258q129 0 129 -119v-790l352 415h299l-409 -446l456 -592h-325l-373 545v-545h-266v1311q0 57 -35 73q-23 12 -86 13z" />
<glyph unicode="l" horiz-adv-x="598" d="M59 1395v135h258q129 0 129 -119v-1411h-264v1309q0 57 -35 73q-23 12 -88 13zM180 0h266h-266z" />
<glyph unicode="m" horiz-adv-x="1916" d="M35 903h10q111 0 111 -86v-817h264v516q0 131 51 217q61 104 184 105q180 0 181 -277v-561h266v516q0 131 51 217q61 104 184 105q178 0 179 -277v-561h266v618q0 193 -74 308q-90 137 -272 137q-244 0 -365 -221q-88 221 -315 221q-242 0 -359 -213v74q0 114 -125 114 h-2h-235v-135z" />
<glyph unicode="n" horiz-adv-x="1273" d="M35 903v135h235q129 0 129 -118v-70q117 215 369 215q371 0 371 -447v-618h-269v561q0 281 -204 281q-125 0 -189 -105q-55 -88 -55 -221v-516h-266v817q0 53 -35 72q-25 14 -86 14z" />
<glyph unicode="o" horiz-adv-x="1273" d="M86 520q0 256 146.5 400.5t404.5 144.5t405.5 -145.5t147.5 -399.5t-148.5 -400.5t-404.5 -146.5t-403.5 146.5t-147.5 400.5zM365 522q0 -158 75.5 -253t196.5 -95t196.5 94t75.5 254t-75.5 255t-196.5 95q-119 0 -195.5 -96t-76.5 -254z" />
<glyph unicode="p" horiz-adv-x="1300" d="M33 903h26q96 0 97 -86v-1245h266v586q117 -180 346 -181q211 0 334 175q109 154 108 374q0 223 -106 371q-119 168 -334 168q-254 0 -375 -225v80q0 118 -127 118h-2h-233v-135zM422 522q0 141 61 234q72 104 207 104q123 0 189 -108q55 -93 55 -224q0 -139 -57 -233 q-68 -111 -199 -111q-129 0 -199 109q-57 92 -57 229z" />
<glyph unicode="q" horiz-adv-x="1300" d="M88 524q0 227 109 375q123 166 340 166q248 0 368 -225v198h240v-1245q0 -57 37 -74q23 -12 84 -12v-135h-258q-129 0 -129 119v467q-119 -180 -340 -181q-217 0 -340 170q-111 152 -111 377zM367 522q0 -156 70.5 -247t185.5 -91t184.5 89t69.5 243q0 162 -72 253 t-195 91q-109 0 -176 -90t-67 -248z" />
<glyph unicode="r" horiz-adv-x="808" d="M35 903v135h231q92 0 117 -65q12 -31 12 -142q98 231 307 232q42 0 93 -10l-11 -240q-43 14 -92 14q-270 0 -270 -342v-485h-266v817q0 57 -35 74q-23 12 -86 12z" />
<glyph unicode="s" horiz-adv-x="933" d="M98 43l15 205q152 -74 305 -74q166 0 166 100q0 53 -56 97q-37 27 -155 86q-139 70 -193 125q-70 72 -69 174q0 133 113.5 221t305.5 88q95 0 285 -59l-20 -197q-137 72 -269 72q-149 0 -149 -94q0 -52 51 -87q27 -18 139 -67q156 -70 219 -133q74 -76 74 -189 q0 -145 -116.5 -233t-323.5 -88q-174 0 -322 53z" />
<glyph unicode="t" horiz-adv-x="823" d="M39 842v196h217v252l256 86v-338h250v-196h-250v-455q0 -115 35 -166t119 -51q45 0 102 18l4 -188q-90 -23 -184 -23q-186 0 -265 92.5t-79 301.5v471h-205z" />
<glyph unicode="u" horiz-adv-x="1316" d="M41 903v135h260q129 0 129 -118v-289q0 -217 14 -273q39 -151 189 -151h2q244 0 244 368v463h268v-1038h-244v199q-117 -215 -368 -215q-373 0 -373 446v387q0 57 -35 74q-25 12 -86 12z" />
<glyph unicode="v" horiz-adv-x="1167" d="M2 903v135h295q92 0 129 -118l213 -680l254 798h266l-377 -1038h-307l-270 817q-16 51 -32.5 68.5t-63.5 17.5h-107z" />
<glyph unicode="w" horiz-adv-x="1927" d="M39 903v135h295q92 0 129 -118l194 -619q10 -35 21 -166q12 131 20 164l203 739h324l198 -743q10 -35 19 -160q10 141 14 158l199 745h260l-330 -1038h-305l-209 776q-16 57 -18 144q-12 -113 -19 -140l-213 -780h-309l-270 817q-16 51 -32.5 68.5t-64.5 17.5h-106z" />
<glyph unicode="x" horiz-adv-x="1048" d="M6 0l365 543q-88 133 -181 268q-63 92 -165 92v135h254q51 0 81 -37q23 -41 48 -81l139 -230l196 348h291l-329 -489l352 -549h-314l-215 391l-225 -391h-297z" />
<glyph unicode="y" horiz-adv-x="1173" d="M8 903v135h295q90 0 129 -118l225 -676l242 794h266l-397 -1085q-78 -215 -172 -303q-100 -96 -270 -96q-53 0 -152 16l23 209q45 -14 86 -15q145 0 237 199l-309 854q-18 51 -31 64q-17 22 -61 22h-4h-107z" />
<glyph unicode="z" horiz-adv-x="991" d="M78 0v227l545 611h-304q-57 0 -75 -35q-12 -25 -13 -86h-135v192q0 129 119 129h705v-213l-558 -624h558v-201h-842z" />
<glyph unicode="{" d="M158 426v209h20q14 -2 21 -2q121 0 172 58.5t51 195.5v250q0 129 16 180q27 90 117 127q84 35 252 35h37q25 -2 39 -2v-209q-8 0 -25 2h-22q-106 0 -139 -42t-33 -159v-240q0 -141 -39 -202q-45 -68 -168 -97q123 -29 168 -96q39 -59 39 -201v-241q0 -117 32.5 -158 t139.5 -41h22q16 2 25 2v-209q-14 0 -39 -2h-37q-256 0 -334 92q-51 59 -51 248v252q0 135 -50 193.5t-173 58.5h-21q-12 -2 -20 -2z" />
<glyph unicode="|" d="M410 -483v2048h206v-2048h-206z" />
<glyph unicode="}" d="M143 -205q8 0 25 -2h22q106 0 139 41t33 158v239q0 141 41 206t166 93q-123 29 -168 97q-39 61 -39 202v242q0 117 -32.5 158t-139.5 41h-22q-16 -2 -25 -2v209h68q203 0 289 -50q66 -37 88 -110q16 -57 16 -180v-252q0 -135 50.5 -193.5t172.5 -58.5q6 0 21 2h20v-209 h-37q-125 0 -176 -56.5t-51 -193.5v-252q0 -125 -16 -180q-20 -74 -88 -111q-90 -49 -281 -49h-37q-25 2 -39 2v209z" />
<glyph unicode="~" horiz-adv-x="1705" d="M178 418v221q213 143 387 143q117 0 295 -59q72 -25 146 -49q82 -25 149 -25q164 0 375 154v-221q-203 -137 -379 -138q-92 0 -184 31q-102 35 -203 68q-113 33 -201 32q-164 0 -385 -157z" />
<glyph unicode="&#xa1;" horiz-adv-x="845" d="M279 0l43 995h200l43 -995h-286zM289 1161v260h268v-260h-268z" />
<glyph unicode="&#xa2;" horiz-adv-x="1214" d="M176 551q0 240 158 389.5t409 149.5q59 0 95 -5l77 248h109l-84 -268q45 -12 82 -25l-23 -217q-57 31 -118 47l-199 -637q59 -18 106 -18q115 0 228 59l6 -223q-113 -49 -274 -49q-70 0 -136 12l-86 -282h-108l96 313q-162 51 -250 184t-88 322zM457 543q0 -172 129 -260 l190 598q-143 -2 -231 -96.5t-88 -241.5z" />
<glyph unicode="&#xa3;" horiz-adv-x="1214" d="M160 0v209h200v475h-172v154h172v26q-2 16 -2 25q0 563 523 563q94 0 233 -39l-14 -209q-88 41 -180 41q-299 0 -299 -377v-30h317v-154h-317v-475h469v-209h-930z" />
<glyph unicode="&#xa4;" horiz-adv-x="1241" d="M68 438l202 205q-76 106 -75 242q0 135 75 241l-202 205l104 107l205 -203q106 78 244 78q139 0 247 -78l203 203l105 -107l-203 -205q76 -106 76 -241q0 -133 -76 -242l203 -205l-105 -104l-203 203q-106 -78 -245 -78q-141 0 -246 78l-205 -203zM346 885 q0 -115 81 -195t196 -80t195.5 81t80.5 194t-81.5 194.5t-194.5 81.5t-195 -82t-82 -194z" />
<glyph unicode="&#xa5;" horiz-adv-x="1216" d="M-37 1421h293l358 -673l363 673h272l-305 -501h197v-119h-271l-110 -187h381v-118h-412v-496h-250v496h-413v118h380l-112 187h-268v119h196z" />
<glyph unicode="&#xa6;" d="M410 -350v758h206v-758h-206zM410 674v758h206v-758h-206z" />
<glyph unicode="&#xa7;" d="M84 625q0 178 184 284q-131 94 -131 230q0 141 111.5 227t310.5 86q146 0 334 -59l-29 -191q-147 63 -278 64q-88 0 -141.5 -36t-53.5 -91q0 -57 64 -103q25 -16 174 -94q188 -96 258 -164q92 -88 92 -211q0 -166 -170 -280q119 -102 119 -230q0 -143 -119 -233t-328 -90 q-168 0 -372 67l30 199q164 -76 312 -76q98 0 156.5 40t58.5 99q0 57 -60 101q-18 14 -162 90q-195 102 -266 172q-94 88 -94 199zM303 674q0 -80 92 -152q70 -53 271 -151q92 84 92 159q0 82 -88 152q-57 45 -262 156q-104 -70 -105 -164z" />
<glyph unicode="&#xa8;" d="M111 1339q0 -133 176 -133t176 133q0 131 -176 131t-176 -131zM561 1339q0 -133 176 -133t176 133q0 131 -176 131t-176 -131z" />
<glyph unicode="&#xa9;" horiz-adv-x="1705" d="M111 733q0 305 219 529q213 217 522 217q311 0 528 -217.5t217 -528.5q0 -309 -215 -520q-227 -223 -530 -223q-301 0 -521 220t-220 523zM233 735q0 -256 182.5 -438t438.5 -182q254 0 442 184q178 176 179 436q0 258 -181.5 439.5t-439.5 181.5q-262 0 -438 -180 q-182 -186 -183 -441zM453 729q0 207 110.5 329t292.5 122q154 0 251 -78t105 -205h-188q-16 147 -172 147q-90 0 -142.5 -80.5t-52.5 -228.5q0 -301 203 -301q152 0 170 162h193q-8 -139 -108.5 -223t-260.5 -84q-184 0 -292.5 117.5t-108.5 322.5z" />
<glyph unicode="&#xaa;" horiz-adv-x="864" d="M59 905q0 242 410 242h102v10q0 156 -192 156q-104 0 -221 -58l-4 134q135 51 274 51q174 0 255 -80t81 -252v-414h-176l-4 117q-98 -135 -265 -135q-119 0 -189.5 64.5t-70.5 164.5zM256 915q0 -47 35 -77.5t92 -30.5q82 0 135 53t53 141v39h-69q-246 0 -246 -125z" />
<glyph unicode="&#xab;" horiz-adv-x="1097" d="M68 537l254 417h227l-240 -417l238 -416h-228zM549 537l252 417h229l-239 -417l235 -416h-225z" />
<glyph unicode="&#xac;" horiz-adv-x="1705" d="M254 668v196h1198v-502h-199v306h-999z" />
<glyph unicode="&#xad;" horiz-adv-x="692" d="M82 471v209h526v-209h-526z" />
<glyph unicode="&#xae;" horiz-adv-x="1705" d="M111 733q0 203 108 387q100 170 266 264.5t367 94.5q315 0 534 -224q211 -215 211 -522q0 -313 -221 -528t-524 -215q-307 0 -528 225q-213 217 -213 518zM233 735q0 -254 179 -434q186 -188 440 -188q250 0 440 182q182 174 183 428q0 266 -178.5 449.5t-442.5 183.5 q-256 0 -432 -176q-188 -188 -189 -445zM545 336v825h323q352 0 353 -237q0 -174 -181 -219l185 -369h-224l-157 338h-99v-338h-200zM745 795h99q170 0 170 116q0 123 -180 123h-89v-239z" />
<glyph unicode="&#xaf;" d="M225 1278v147h574v-147h-574z" />
<glyph unicode="&#xb0;" horiz-adv-x="673" d="M35 1159q0 127 88 216t215 89q125 0 214 -89t89 -216q0 -125 -89 -214t-216 -89t-214 88t-87 215zM162 1161q0 -74 51 -125t125 -51t124 52.5t50 123.5q0 72 -51 123t-123 51t-124 -51t-52 -123z" />
<glyph unicode="&#xb1;" horiz-adv-x="1705" d="M254 -2v199h1198v-199h-1198zM254 698v199h498v326h202v-326h498v-199h-498v-325h-202v325h-498z" />
<glyph unicode="&#xb2;" horiz-adv-x="800" d="M80 569v129q221 180 311 283q109 121 109 205q0 53 -44 86t-118 33q-109 0 -221 -60l-11 139q154 55 267 56q139 0 223 -67.5t84 -172.5q0 -106 -96 -231q-88 -113 -283 -275h401v-125h-622z" />
<glyph unicode="&#xb3;" horiz-adv-x="800" d="M63 594l15 139q90 -43 205 -43q104 0 165.5 40t61.5 101q0 117 -188 117h-107v121h104q86 0 136.5 32t50.5 85q0 51 -52.5 85t-140.5 34q-98 0 -202 -39l-9 133q201 41 254 41q152 0 240 -66.5t88 -169.5q0 -149 -180 -188q195 -41 194 -197q0 -115 -106.5 -186.5 t-290.5 -71.5q-117 0 -238 33z" />
<glyph unicode="&#xb4;" d="M358 1178l199 360h234l-306 -360h-127z" />
<glyph unicode="&#xb6;" d="M41 1130q0 156 106.5 252.5t284.5 96.5h551v-111h-113v-1368h-151v1368h-160v-1368h-151v784q-168 6 -267.5 101.5t-99.5 244.5z" />
<glyph unicode="&#xb7;" horiz-adv-x="606" d="M164 711q0 57 41 99t98 42q59 0 100 -41t41 -100q0 -57 -42 -98.5t-99 -41.5t-98 41t-41 99z" />
<glyph unicode="&#xb8;" d="M248 -317q147 -39 256 -39q104 0 104 75q0 80 -127 80q-35 0 -53 -2v203h94v-94h15q229 0 229 -189q0 -190 -256 -190q-102 0 -262 43v113z" />
<glyph unicode="&#xb9;" horiz-adv-x="800" d="M115 1241l274 180h148v-852h-170v678l-164 -114z" />
<glyph unicode="&#xba;" horiz-adv-x="956" d="M66 1059q0 178 109 279.5t302 101.5q195 0 305.5 -101.5t110.5 -279.5t-111.5 -280.5t-304.5 -102.5t-302 102.5t-109 280.5zM274 1059q0 -109 57.5 -176.5t145.5 -67.5q92 0 148.5 66.5t56.5 177.5q0 113 -56.5 179.5t-148.5 66.5q-88 0 -145.5 -68t-57.5 -178z" />
<glyph unicode="&#xbb;" horiz-adv-x="1097" d="M68 121l239 416l-237 417h227l252 -417l-254 -416h-227zM547 121l239 416l-237 417h227l252 -417l-254 -416h-227z" />
<glyph unicode="&#xbc;" horiz-adv-x="1871" d="M109 1253l262 170h141v-796h-164v633l-155 -107zM471 -29l756 1481h170l-752 -1481h-174zM1141 168v135l375 494h202v-516h125v-113h-125v-168h-164v168h-413zM1272 281h282l7 393z" />
<glyph unicode="&#xbd;" horiz-adv-x="1871" d="M109 1253l262 170h141v-796h-164v633l-155 -107zM471 -29l756 1481h170l-752 -1481h-174zM1182 0v121q209 168 297 264q102 113 102 190q0 49 -42 80t-112 31q-98 0 -208 -55l-11 131q135 49 254 49q133 0 213 -62.5t80 -158.5q0 -102 -92 -217q-84 -104 -270 -256h385 v-117h-596z" />
<glyph unicode="&#xbe;" horiz-adv-x="1871" d="M61 649l13 131q88 -41 196 -41q100 0 158.5 38t58.5 95q0 109 -180 109h-102v111h100q82 0 130 30.5t48 79.5q0 47 -50 79t-134 32q-96 0 -193 -35l-10 123q209 39 244 39q145 0 229 -62.5t84 -158.5q0 -138 -174 -177q186 -35 187 -182q0 -109 -101.5 -174t-277.5 -65 q-115 0 -226 28zM473 -29l756 1481h170l-752 -1481h-174zM1143 168v135l375 494h202v-516h125v-113h-125v-168h-164v168h-413zM1274 281h282l7 393z" />
<glyph unicode="&#xbf;" horiz-adv-x="1091" d="M152 334q0 90 49 178q35 66 125 174q82 100 110 148q45 74 45 145v12q-2 6 -2 10h226q2 -16 2 -45q0 -125 -99 -256q-66 -82 -129 -165.5t-63 -159.5q0 -86 70.5 -141.5t185.5 -55.5q125 0 284 66l7 -213q-178 -55 -336 -56q-221 0 -348 98.5t-127 260.5zM418 1298 q0 131 176 132q176 -1 176 -132q0 -133 -176 -133t-176 133z" />
<glyph unicode="&#xc0;" horiz-adv-x="1394" d="M-10 0q463 1190 473 1225q2 8 2 14q0 53 -191 47v135h523q55 0 86 -35q18 -23 43 -83l504 -1303h-302l-118 336h-619l-123 -336h-278zM419 1923h234l199 -360h-127zM469 545h467l-229 639z" />
<glyph unicode="&#xc1;" horiz-adv-x="1394" d="M-10 0q463 1190 473 1225q2 8 2 14q0 53 -191 47v135h523q55 0 86 -35q18 -23 43 -83l504 -1303h-302l-118 336h-619l-123 -336h-278zM469 545h467l-229 639zM544 1563l199 360h234l-306 -360h-127z" />
<glyph unicode="&#xc2;" horiz-adv-x="1394" d="M-10 0q463 1190 473 1225q2 8 2 14q0 53 -191 47v135h523q55 0 86 -35q18 -23 43 -83l504 -1303h-302l-118 336h-619l-123 -336h-278zM395 1563l197 360h212l197 -360h-129l-174 223l-174 -223h-129zM469 545h467l-229 639z" />
<glyph unicode="&#xc3;" horiz-adv-x="1394" d="M-10 0q463 1190 473 1225q2 8 2 14q0 53 -191 47v135h523q55 0 86 -35q18 -23 43 -83l504 -1303h-302l-118 336h-619l-123 -336h-278zM385 1612q51 219 204 219q41 0 76 -10l96 -29q35 -10 56 -10q67 0 92 82h102q-57 -225 -207 -226q-39 0 -71 11l-92 28q-33 10 -58 11 q-70 0 -96 -76h-102zM469 545h467l-229 639z" />
<glyph unicode="&#xc4;" horiz-adv-x="1394" d="M-10 0q463 1190 473 1225q2 8 2 14q0 53 -191 47v135h523q55 0 86 -35q18 -23 43 -83l504 -1303h-302l-118 336h-619l-123 -336h-278zM297 1724q0 -133 176 -133t176 133q0 131 -176 131t-176 -131zM469 545h467l-229 639zM747 1724q0 -133 176 -133t176 133 q0 131 -176 131t-176 -131z" />
<glyph unicode="&#xc5;" horiz-adv-x="1394" d="M-10 0l553 1421h338l549 -1421h-302l-118 336h-619l-123 -336h-278zM451 1747q0 109 74.5 184.5t183.5 75.5t184.5 -76t75.5 -184q0 -109 -76 -183.5t-184 -74.5q-109 0 -183.5 74.5t-74.5 183.5zM469 545h467l-229 639zM582 1747q0 -53 36.5 -90t92.5 -37q55 0 91 37 t36 90t-37 91t-90 38t-91 -38t-38 -91z" />
<glyph unicode="&#xc6;" horiz-adv-x="1921" d="M-49 0l805 1421h1028v-207h-574v-374h539v-209h-539v-416h594v-215h-864v334h-518l-180 -334h-291zM530 543h410v690h-35z" />
<glyph unicode="&#xc7;" horiz-adv-x="1316" d="M96 702q0 334 211 542t565 208q66 0 138 -14q51 -8 125 -31q98 -27 112 -31l-18 -225q-219 82 -330 82q-233 0 -373.5 -145.5t-140.5 -385.5q0 -225 143.5 -368.5t382.5 -143.5q66 0 160 29q82 27 162 53l24 -225q-92 -25 -184 -51q-106 -25 -186 -25q-373 0 -584 203 q-207 197 -207 528zM541 -317q147 -39 256 -39q104 0 104 75q0 80 -127 80q-35 0 -53 -2v203h94v-94h15q229 0 229 -189q0 -190 -256 -190q-102 0 -262 43v113z" />
<glyph unicode="&#xc8;" horiz-adv-x="1165" d="M37 1288v133h860q129 0 129 -118v-86h-588v-377h557v-209h-557v-416h609v-215h-889v1202q0 57 -35 74q-23 12 -86 12zM305 1923h234l199 -360h-127z" />
<glyph unicode="&#xc9;" horiz-adv-x="1165" d="M37 1288v133h860q129 0 129 -118v-86h-588v-377h557v-209h-557v-416h609v-215h-889v1202q0 57 -35 74q-23 12 -86 12zM430 1563l199 360h234l-306 -360h-127z" />
<glyph unicode="&#xca;" horiz-adv-x="1165" d="M37 1288v133h860q129 0 129 -118v-86h-588v-377h557v-209h-557v-416h609v-215h-889v1202q0 57 -35 74q-23 12 -86 12zM281 1563l197 360h212l197 -360h-129l-174 223l-174 -223h-129z" />
<glyph unicode="&#xcb;" horiz-adv-x="1165" d="M37 1288v133h860q129 0 129 -118v-86h-588v-377h557v-209h-557v-416h609v-215h-889v1202q0 57 -35 74q-23 12 -86 12zM183 1724q0 -133 176 -133t176 133q0 131 -176 131t-176 -131zM633 1724q0 -133 176 -133t176 133q0 131 -176 131t-176 -131z" />
<glyph unicode="&#xcc;" horiz-adv-x="598" d="M20 1923h234l199 -360h-127zM37 1286v135h272q129 0 129 -118v-1303h-280v1200q0 86 -97 86h-24z" />
<glyph unicode="&#xcd;" horiz-adv-x="598" d="M37 1286v135h272q129 0 129 -118v-1303h-280v1200q0 86 -97 86h-24zM145 1563l199 360h234l-306 -360h-127z" />
<glyph unicode="&#xce;" horiz-adv-x="598" d="M-4 1563l197 360h212l197 -360h-129l-174 223l-174 -223h-129zM37 1286v135h272q129 0 129 -118v-1303h-280v1200q0 86 -97 86h-24z" />
<glyph unicode="&#xcf;" horiz-adv-x="598" d="M-102 1724q0 -133 176 -133t176 133q0 131 -176 131t-176 -131zM37 1286v135h272q129 0 129 -118v-1303h-280v1200q0 86 -97 86h-24zM348 1724q0 -133 176 -133t176 133q0 131 -176 131t-176 -131z" />
<glyph unicode="&#xd0;" horiz-adv-x="1513" d="M39 653v164h160v604h407q356 0 518 -102q305 -193 306 -606q0 -410 -310 -604q-172 -109 -538 -109h-383v653h-160zM479 219h164q236 0 366 131t130 367q0 240 -130 366.5t-376 126.5h-154v-393h287v-164h-287v-434z" />
<glyph unicode="&#xd1;" horiz-adv-x="1503" d="M-18 1286v135h460q53 0 84 -37q6 -8 45 -81l461 -875q35 -65 94 -258q-35 201 -34 326v925h254v-1421h-347l-538 1016q-43 80 -84 246q35 -264 35 -340v-922h-254v1200q0 70 -60 84q-12 2 -116 2zM439 1612q51 219 204 219q41 0 76 -10l96 -29q35 -10 56 -10q67 0 92 82 h102q-57 -225 -207 -226q-39 0 -71 11l-92 28q-33 10 -58 11q-70 0 -96 -76h-102z" />
<glyph unicode="&#xd2;" horiz-adv-x="1538" d="M96 711q0 348 179.5 544.5t492.5 196.5t493.5 -197.5t180.5 -543.5t-180.5 -543t-493.5 -197t-492.5 195.5t-179.5 544.5zM381 715q0 -242 107.5 -385.5t279.5 -143.5t280.5 143.5t108.5 385.5t-108.5 384t-280.5 142t-279.5 -142.5t-107.5 -383.5zM491 1923h234 l199 -360h-127z" />
<glyph unicode="&#xd3;" horiz-adv-x="1538" d="M96 711q0 348 179.5 544.5t492.5 196.5t493.5 -197.5t180.5 -543.5t-180.5 -543t-493.5 -197t-492.5 195.5t-179.5 544.5zM381 715q0 -242 107.5 -385.5t279.5 -143.5t280.5 143.5t108.5 385.5t-108.5 384t-280.5 142t-279.5 -142.5t-107.5 -383.5zM616 1563l199 360h234 l-306 -360h-127z" />
<glyph unicode="&#xd4;" horiz-adv-x="1538" d="M96 711q0 348 179.5 544.5t492.5 196.5t493.5 -197.5t180.5 -543.5t-180.5 -543t-493.5 -197t-492.5 195.5t-179.5 544.5zM381 715q0 -242 107.5 -385.5t279.5 -143.5t280.5 143.5t108.5 385.5t-108.5 384t-280.5 142t-279.5 -142.5t-107.5 -383.5zM467 1563l197 360h212 l197 -360h-129l-174 223l-174 -223h-129z" />
<glyph unicode="&#xd5;" horiz-adv-x="1538" d="M96 711q0 348 179.5 544.5t492.5 196.5t493.5 -197.5t180.5 -543.5t-180.5 -543t-493.5 -197t-492.5 195.5t-179.5 544.5zM381 715q0 -242 107.5 -385.5t279.5 -143.5t280.5 143.5t108.5 385.5t-108.5 384t-280.5 142t-279.5 -142.5t-107.5 -383.5zM457 1612 q51 219 204 219q41 0 76 -10l96 -29q35 -10 56 -10q67 0 92 82h102q-57 -225 -207 -226q-39 0 -71 11l-92 28q-33 10 -58 11q-70 0 -96 -76h-102z" />
<glyph unicode="&#xd6;" horiz-adv-x="1538" d="M96 711q0 348 179.5 544.5t492.5 196.5t493.5 -197.5t180.5 -543.5t-180.5 -543t-493.5 -197t-492.5 195.5t-179.5 544.5zM369 1724q0 -133 176 -133t176 133q0 131 -176 131t-176 -131zM381 715q0 -242 107.5 -385.5t279.5 -143.5t280.5 143.5t108.5 385.5t-108.5 384 t-280.5 142t-279.5 -142.5t-107.5 -383.5zM819 1724q0 -133 176 -133t176 133q0 131 -176 131t-176 -131z" />
<glyph unicode="&#xd7;" horiz-adv-x="1705" d="M276 160l451 450l-451 453l140 139l450 -450l451 450l141 -139l-450 -453l450 -450l-141 -140l-451 451l-450 -451z" />
<glyph unicode="&#xd8;" horiz-adv-x="1538" d="M41 31l184 211q-129 188 -129 483q0 332 181.5 529.5t476.5 197.5q266 0 442 -139l178 196l123 -112l-184 -209q129 -193 129 -483q0 -338 -180.5 -536t-477.5 -198q-289 0 -442 140l-178 -197zM369 715q0 -147 45 -271l620 691q-106 113 -272 112q-174 0 -283.5 -143 t-109.5 -389zM508 291q94 -111 264 -111q180 0 288.5 144.5t108.5 398.5q0 149 -45 258z" />
<glyph unicode="&#xd9;" horiz-adv-x="1443" d="M29 1286v135h272q129 0 129 -118v-715q0 -399 287 -400q301 0 301 410v823h264v-825q0 -625 -569 -625q-563 0 -563 613v616q0 57 -35 74q-25 12 -86 12zM444 1923h234l199 -360h-127z" />
<glyph unicode="&#xda;" horiz-adv-x="1443" d="M29 1286v135h272q129 0 129 -118v-715q0 -399 287 -400q301 0 301 410v823h264v-825q0 -625 -569 -625q-563 0 -563 613v616q0 57 -35 74q-25 12 -86 12zM569 1563l199 360h234l-306 -360h-127z" />
<glyph unicode="&#xdb;" horiz-adv-x="1443" d="M29 1286v135h272q129 0 129 -118v-715q0 -399 287 -400q301 0 301 410v823h264v-825q0 -625 -569 -625q-563 0 -563 613v616q0 57 -35 74q-25 12 -86 12zM420 1563l197 360h212l197 -360h-129l-174 223l-174 -223h-129z" />
<glyph unicode="&#xdc;" horiz-adv-x="1443" d="M29 1286v135h272q129 0 129 -118v-715q0 -399 287 -400q301 0 301 410v823h264v-825q0 -625 -569 -625q-563 0 -563 613v616q0 57 -35 74q-25 12 -86 12zM322 1724q0 -133 176 -133t176 133q0 131 -176 131t-176 -131zM772 1724q0 -133 176 -133t176 133q0 131 -176 131 t-176 -131z" />
<glyph unicode="&#xdd;" horiz-adv-x="1230" d="M35 1286v135h276q51 0 82 -35q6 -8 47 -83l285 -523l346 641h303l-520 -858v-563h-281v559l-385 641q-16 31 -34 64q-18 23 -62 22h-57zM462 1563l199 360h234l-306 -360h-127z" />
<glyph unicode="&#xde;" horiz-adv-x="1171" d="M160 0v1421h280v-190h142q543 0 542 -445q0 -207 -137 -321.5t-395 -114.5h-152v-350h-280zM440 551h115q283 0 283 237q0 240 -267 240h-131v-477z" />
<glyph unicode="&#xdf;" horiz-adv-x="1267" d="M150 0v1020q0 532 495 532q223 0 351 -111.5t128 -297.5q0 -267 -272 -330q336 -47 336 -371q0 -209 -128 -332.5t-339 -123.5q-94 0 -197 18l8 205q59 -20 127 -21q115 0 184.5 72t69.5 191q0 246 -301 245h-26v203q133 0 204.5 65.5t71.5 182.5q0 98 -57 157.5 t-156 59.5q-125 0 -178 -91t-53 -288v-985h-268z" />
<glyph unicode="&#xe0;" horiz-adv-x="1153" d="M78 301q0 236 248 309q127 37 436 37v15q0 223 -256 223q-139 0 -297 -84l-4 190q182 74 364 74q233 0 340 -113q86 -90 105 -280q4 -45 4 -367q0 -113 10 -131q18 -39 113 -39v-135h-232q-125 0 -129 119l-2 49q-133 -195 -352 -195q-152 0 -250 89.5t-98 238.5z M299 1538h234l199 -360h-127zM340 315q0 -72 49 -112.5t121 -40.5q115 0 184 84q68 77 68 194v56h-94q-328 0 -328 -181z" />
<glyph unicode="&#xe1;" horiz-adv-x="1153" d="M78 301q0 236 248 309q127 37 436 37v15q0 223 -256 223q-139 0 -297 -84l-4 190q182 74 364 74q233 0 340 -113q86 -90 105 -280q4 -45 4 -367q0 -113 10 -131q18 -39 113 -39v-135h-232q-125 0 -129 119l-2 49q-133 -195 -352 -195q-152 0 -250 89.5t-98 238.5z M340 315q0 -72 49 -112.5t121 -40.5q115 0 184 84q68 77 68 194v56h-94q-328 0 -328 -181zM424 1178l199 360h234l-306 -360h-127z" />
<glyph unicode="&#xe2;" horiz-adv-x="1153" d="M78 301q0 236 248 309q127 37 436 37v15q0 223 -256 223q-139 0 -297 -84l-4 190q182 74 364 74q233 0 340 -113q86 -90 105 -280q4 -45 4 -367q0 -113 10 -131q18 -39 113 -39v-135h-232q-125 0 -129 119l-2 49q-133 -195 -352 -195q-152 0 -250 89.5t-98 238.5z M275 1178l197 360h212l197 -360h-129l-174 223l-174 -223h-129zM340 315q0 -72 49 -112.5t121 -40.5q115 0 184 84q68 77 68 194v56h-94q-328 0 -328 -181z" />
<glyph unicode="&#xe3;" horiz-adv-x="1153" d="M78 301q0 236 248 309q127 37 436 37v15q0 223 -256 223q-139 0 -297 -84l-4 190q182 74 364 74q233 0 340 -113q86 -90 105 -280q4 -45 4 -367q0 -113 10 -131q18 -39 113 -39v-135h-232q-125 0 -129 119l-2 49q-133 -195 -352 -195q-152 0 -250 89.5t-98 238.5z M265 1227q51 219 204 219q41 0 76 -10l96 -29q35 -10 56 -10q67 0 92 82h102q-57 -225 -207 -226q-39 0 -71 11l-92 28q-33 10 -58 11q-70 0 -96 -76h-102zM340 315q0 -72 49 -112.5t121 -40.5q115 0 184 84q68 77 68 194v56h-94q-328 0 -328 -181z" />
<glyph unicode="&#xe4;" horiz-adv-x="1153" d="M78 301q0 236 248 309q127 37 436 37v15q0 223 -256 223q-139 0 -297 -84l-4 190q182 74 364 74q233 0 340 -113q86 -90 105 -280q4 -45 4 -367q0 -113 10 -131q18 -39 113 -39v-135h-232q-125 0 -129 119l-2 49q-133 -195 -352 -195q-152 0 -250 89.5t-98 238.5z M177 1339q0 -133 176 -133t176 133q0 131 -176 131t-176 -131zM340 315q0 -72 49 -112.5t121 -40.5q115 0 184 84q68 77 68 194v56h-94q-328 0 -328 -181zM627 1339q0 -133 176 -133t176 133q0 131 -176 131t-176 -131z" />
<glyph unicode="&#xe5;" horiz-adv-x="1153" d="M78 301q0 346 547 346h137v15q0 223 -256 223q-137 0 -297 -84l-4 190q184 74 364 74q233 0 341 -113.5t108 -359.5v-592h-236l-4 168q-123 -180 -352 -180q-160 0 -254 86t-94 227zM315 1391q0 109 74.5 184.5t183.5 75.5t185 -76t76 -184q0 -109 -76 -183.5t-185 -74.5 t-183.5 74.5t-74.5 183.5zM340 315q0 -68 46 -110.5t124 -42.5q109 0 180.5 76.5t71.5 201.5v56h-94q-328 0 -328 -181zM446 1391q0 -53 38 -91t91 -38t90 37.5t37 91.5q0 53 -37 91t-90 38t-91 -38t-38 -91z" />
<glyph unicode="&#xe6;" horiz-adv-x="1808" d="M80 307q0 340 545 340h137v10q0 229 -246 230q-143 0 -307 -86l-4 190q172 76 346 76q251 0 362 -156q135 154 371 154q223 0 347 -141.5t124 -393.5v-71h-731q10 -135 103.5 -215t238.5 -80q160 0 303 76v-205q-152 -61 -348 -62q-338 0 -455 246q-145 -236 -424 -235 q-170 0 -266 87t-96 236zM336 315q0 -68 49 -110.5t129 -42.5q109 0 178.5 76.5t69.5 201.5v56h-111q-315 0 -315 -181zM1024 629h489q-8 125 -72.5 195.5t-164.5 70.5t-169 -71.5t-83 -194.5z" />
<glyph unicode="&#xe7;" horiz-adv-x="1003" d="M86 528q0 229 154.5 383t400.5 154q68 0 287 -53l-21 -209q-135 53 -209 53q-152 0 -242.5 -93t-90.5 -241q0 -150 91 -245t238 -95q100 0 230 68l10 -213q-186 -63 -291 -64q-256 0 -406.5 151.5t-150.5 403.5zM320 -317q147 -39 256 -39q104 0 104 75q0 80 -127 80 q-35 0 -53 -2v203h94v-94h15q229 0 229 -189q0 -190 -256 -190q-102 0 -262 43v113z" />
<glyph unicode="&#xe8;" horiz-adv-x="1128" d="M84 537q0 236 142.5 382t371.5 146q225 0 351 -140.5t126 -394.5v-84h-731q10 -131 101.5 -206.5t238.5 -75.5q162 0 305 76v-205q-152 -61 -352 -62q-260 0 -406.5 149.5t-146.5 414.5zM315 1538h234l199 -360h-127zM344 612h490q-10 133 -74 206t-164 73 q-102 0 -170 -73t-82 -206z" />
<glyph unicode="&#xe9;" horiz-adv-x="1128" d="M84 537q0 236 142.5 382t371.5 146q225 0 351 -140.5t126 -394.5v-84h-731q10 -131 101.5 -206.5t238.5 -75.5q162 0 305 76v-205q-152 -61 -352 -62q-260 0 -406.5 149.5t-146.5 414.5zM344 612h490q-10 133 -74 206t-164 73q-102 0 -170 -73t-82 -206zM440 1178 l199 360h234l-306 -360h-127z" />
<glyph unicode="&#xea;" horiz-adv-x="1128" d="M84 537q0 236 142.5 382t371.5 146q225 0 351 -140.5t126 -394.5v-84h-731q10 -131 101.5 -206.5t238.5 -75.5q162 0 305 76v-205q-152 -61 -352 -62q-260 0 -406.5 149.5t-146.5 414.5zM291 1178l197 360h212l197 -360h-129l-174 223l-174 -223h-129zM344 612h490 q-10 133 -74 206t-164 73q-102 0 -170 -73t-82 -206z" />
<glyph unicode="&#xeb;" horiz-adv-x="1128" d="M84 537q0 236 142.5 382t371.5 146q225 0 351 -140.5t126 -394.5v-84h-731q10 -131 101.5 -206.5t238.5 -75.5q162 0 305 76v-205q-152 -61 -352 -62q-260 0 -406.5 149.5t-146.5 414.5zM193 1339q0 -133 176 -133t176 133q0 131 -176 131t-176 -131zM344 612h490 q-10 133 -74 206t-164 73q-102 0 -170 -73t-82 -206zM643 1339q0 -133 176 -133t176 133q0 131 -176 131t-176 -131z" />
<glyph unicode="&#xec;" horiz-adv-x="569" d="M6 1538h234l199 -360h-127zM152 0v1038h266v-1038h-266z" />
<glyph unicode="&#xed;" horiz-adv-x="569" d="M131 1178l199 360h234l-306 -360h-127zM152 0v1038h266v-1038h-266z" />
<glyph unicode="&#xee;" horiz-adv-x="569" d="M-18 1178l197 360h212l197 -360h-129l-174 223l-174 -223h-129zM152 0v1038h266v-1038h-266z" />
<glyph unicode="&#xef;" horiz-adv-x="569" d="M-116 1339q0 -133 176 -133t176 133q0 131 -176 131t-176 -131zM152 0v1038h266v-1038h-266zM334 1339q0 -133 176 -133t176 133q0 131 -176 131t-176 -131z" />
<glyph unicode="&#xf0;" horiz-adv-x="1273" d="M104 502q0 244 141.5 387t375.5 143q88 0 165 -26q-70 115 -147 211l-227 -113l-60 117l205 104q-80 98 -205 207h240q57 -63 121 -131l227 115l66 -115l-201 -103q367 -440 366 -796q0 -246 -143 -387.5t-391 -141.5t-390.5 141.5t-142.5 387.5zM373 504 q0 -154 73.5 -246t190.5 -92q119 0 192.5 91t73.5 247q0 158 -73.5 250t-192.5 92t-191.5 -93.5t-72.5 -248.5z" />
<glyph unicode="&#xf1;" horiz-adv-x="1273" d="M35 903v135h235q129 0 129 -118v-70q117 215 369 215q371 0 371 -447v-618h-269v561q0 281 -204 281q-125 0 -189 -105q-55 -88 -55 -221v-516h-266v817q0 53 -35 72q-25 14 -86 14zM346 1227q51 219 204 219q41 0 76 -10l96 -29q35 -10 56 -10q67 0 92 82h102 q-57 -225 -207 -226q-39 0 -71 11l-92 28q-33 10 -58 11q-70 0 -96 -76h-102z" />
<glyph unicode="&#xf2;" horiz-adv-x="1273" d="M86 520q0 256 146.5 400.5t404.5 144.5t405.5 -145.5t147.5 -399.5t-148.5 -400.5t-404.5 -146.5t-403.5 146.5t-147.5 400.5zM358 1538h234l199 -360h-127zM365 522q0 -158 75.5 -253t196.5 -95t196.5 94t75.5 254t-75.5 255t-196.5 95q-119 0 -195.5 -96t-76.5 -254z " />
<glyph unicode="&#xf3;" horiz-adv-x="1273" d="M86 520q0 256 146.5 400.5t404.5 144.5t405.5 -145.5t147.5 -399.5t-148.5 -400.5t-404.5 -146.5t-403.5 146.5t-147.5 400.5zM365 522q0 -158 75.5 -253t196.5 -95t196.5 94t75.5 254t-75.5 255t-196.5 95q-119 0 -195.5 -96t-76.5 -254zM483 1178l199 360h234 l-306 -360h-127z" />
<glyph unicode="&#xf4;" horiz-adv-x="1273" d="M86 520q0 256 146.5 400.5t404.5 144.5t405.5 -145.5t147.5 -399.5t-148.5 -400.5t-404.5 -146.5t-403.5 146.5t-147.5 400.5zM334 1178l197 360h212l197 -360h-129l-174 223l-174 -223h-129zM365 522q0 -158 75.5 -253t196.5 -95t196.5 94t75.5 254t-75.5 255t-196.5 95 q-119 0 -195.5 -96t-76.5 -254z" />
<glyph unicode="&#xf5;" horiz-adv-x="1273" d="M86 520q0 256 146.5 400.5t404.5 144.5t405.5 -145.5t147.5 -399.5t-148.5 -400.5t-404.5 -146.5t-403.5 146.5t-147.5 400.5zM324 1227q51 219 204 219q41 0 76 -10l96 -29q35 -10 56 -10q67 0 92 82h102q-57 -225 -207 -226q-39 0 -71 11l-92 28q-33 10 -58 11 q-70 0 -96 -76h-102zM365 522q0 -158 75.5 -253t196.5 -95t196.5 94t75.5 254t-75.5 255t-196.5 95q-119 0 -195.5 -96t-76.5 -254z" />
<glyph unicode="&#xf6;" horiz-adv-x="1273" d="M86 520q0 256 146.5 400.5t404.5 144.5t405.5 -145.5t147.5 -399.5t-148.5 -400.5t-404.5 -146.5t-403.5 146.5t-147.5 400.5zM236 1339q0 -133 176 -133t176 133q0 131 -176 131t-176 -131zM365 522q0 -158 75.5 -253t196.5 -95t196.5 94t75.5 254t-75.5 255t-196.5 95 q-119 0 -195.5 -96t-76.5 -254zM686 1339q0 -133 176 -133t176 133q0 131 -176 131t-176 -131z" />
<glyph unicode="&#xf7;" horiz-adv-x="1705" d="M254 512v199h1198v-199h-1198zM664 233q0 -133 176 -133t176 133q0 131 -176 132q-176 0 -176 -132zM684 1012q0 -133 176 -133t176 133q0 131 -176 131t-176 -131z" />
<glyph unicode="&#xf8;" horiz-adv-x="1273" d="M53 8l142 156q-109 154 -109 356q0 252 148.5 398.5t406.5 146.5q182 0 315 -82l150 162l117 -109l-144 -157q109 -137 109 -355q0 -252 -146.5 -400.5t-392.5 -148.5q-207 0 -330 82l-147 -159zM352 522q0 -84 31 -164l424 461q-70 61 -174 62q-123 0 -202 -99.5 t-79 -259.5zM469 227q68 -61 174 -61q125 0 203 99.5t78 266.5q0 88 -29 158z" />
<glyph unicode="&#xf9;" horiz-adv-x="1273" d="M41 903v135h260q129 0 129 -118v-289q0 -217 14 -273q39 -152 191 -151q244 0 244 368v463h268v-1038h-244v199q-117 -215 -368 -215q-373 0 -373 446v387q0 57 -35 74q-25 12 -86 12zM358 1538h234l199 -360h-127z" />
<glyph unicode="&#xfa;" horiz-adv-x="1273" d="M41 903v135h260q129 0 129 -118v-289q0 -217 14 -273q39 -152 191 -151q244 0 244 368v463h268v-1038h-244v199q-117 -215 -368 -215q-373 0 -373 446v387q0 57 -35 74q-25 12 -86 12zM483 1178l199 360h234l-306 -360h-127z" />
<glyph unicode="&#xfb;" horiz-adv-x="1273" d="M41 903v135h260q129 0 129 -118v-289q0 -217 14 -273q39 -152 191 -151q244 0 244 368v463h268v-1038h-244v199q-117 -215 -368 -215q-373 0 -373 446v387q0 57 -35 74q-25 12 -86 12zM334 1178l197 360h212l197 -360h-129l-174 223l-174 -223h-129z" />
<glyph unicode="&#xfc;" horiz-adv-x="1273" d="M41 903v135h260q129 0 129 -118v-289q0 -217 14 -273q39 -152 191 -151q244 0 244 368v463h268v-1038h-244v199q-117 -215 -368 -215q-373 0 -373 446v387q0 57 -35 74q-25 12 -86 12zM236 1339q0 -133 176 -133t176 133q0 131 -176 131t-176 -131zM686 1339 q0 -133 176 -133t176 133q0 131 -176 131t-176 -131z" />
<glyph unicode="&#xfd;" horiz-adv-x="1087" d="M8 903v135h295q90 0 129 -118l225 -676l242 794h266l-397 -1085q-78 -215 -172 -303q-100 -96 -270 -96q-53 0 -152 16l23 209q45 -14 86 -15q145 0 237 199l-309 854q-18 51 -31 64q-18 23 -65 22h-107zM391 1178l199 360h234l-306 -360h-127z" />
<glyph unicode="&#xfe;" horiz-adv-x="1300" d="M156 -428v1960h266v-655q119 188 344 188q201 0 322.5 -144.5t121.5 -390.5q0 -248 -124.5 -400.5t-317.5 -152.5q-227 0 -346 181v-586h-266zM422 522q0 -158 70.5 -248t185.5 -90q117 0 186.5 91.5t69.5 252.5q0 152 -67.5 242t-176.5 90q-123 0 -195.5 -90t-72.5 -248 z" />
<glyph unicode="&#xff;" horiz-adv-x="1087" d="M8 903v135h295q90 0 129 -118l225 -676l242 794h266l-397 -1085q-78 -215 -172 -303q-100 -96 -270 -96q-53 0 -152 16l23 209q45 -14 86 -15q145 0 237 199l-309 854q-18 51 -31 64q-18 23 -65 22h-107zM144 1339q0 -133 176 -133t176 133q0 131 -176 131t-176 -131z M594 1339q0 -133 176 -133t176 133q0 131 -176 131t-176 -131z" />
<glyph unicode="&#x152;" horiz-adv-x="2002" d="M96 709q0 352 186.5 540.5t534.5 188.5q57 0 179 -8.5t188 -8.5h682v-204h-574v-377h539v-209h-539v-416h594v-215h-739q-74 0 -197 -7t-172 -7q-328 0 -505 188t-177 535zM381 715q0 -256 109.5 -390.5t318.5 -134.5q68 0 207 21v1003q-104 20 -199 21q-436 0 -436 -520 z" />
<glyph unicode="&#x153;" horiz-adv-x="1951" d="M86 518q0 254 144.5 400.5t392.5 146.5q278 0 419 -176q139 174 388 174q221 0 346 -140.5t125 -392.5v-84h-734q10 -131 101.5 -206.5t240.5 -75.5q160 0 303 76v-205q-156 -61 -335 -62q-307 0 -437 187q-160 -184 -419 -185q-246 0 -390.5 145.5t-144.5 397.5z M365 522q0 -158 75.5 -253t192.5 -95q125 0 200.5 93t75.5 255q0 160 -75.5 255t-192.5 95q-125 0 -200.5 -95t-75.5 -255zM1167 612h490q-10 133 -73.5 206t-164.5 73q-100 0 -169 -74t-83 -205z" />
<glyph unicode="&#x178;" horiz-adv-x="1230" d="M35 1286v135h276q51 0 82 -35q6 -8 47 -83l285 -523l346 641h303l-520 -858v-563h-281v559l-385 641q-16 31 -34 64q-18 23 -62 22h-57zM215 1724q0 -133 176 -133t176 133q0 131 -176 131t-176 -131zM665 1724q0 -133 176 -133t176 133q0 131 -176 131t-176 -131z" />
<glyph unicode="&#x2c6;" d="M209 1178l197 360h212l197 -360h-129l-174 223l-174 -223h-129z" />
<glyph unicode="&#x2dc;" d="M199 1227q51 219 204 219q41 0 76 -10l96 -29q35 -10 56 -10q67 0 92 82h102q-57 -225 -207 -226q-39 0 -71 11l-92 28q-33 10 -58 11q-70 0 -96 -76h-102z" />
<glyph unicode="&#x2000;" horiz-adv-x="1003" />
<glyph unicode="&#x2001;" horiz-adv-x="2007" />
<glyph unicode="&#x2002;" horiz-adv-x="1003" />
<glyph unicode="&#x2003;" horiz-adv-x="2007" />
<glyph unicode="&#x2004;" horiz-adv-x="669" />
<glyph unicode="&#x2005;" horiz-adv-x="501" />
<glyph unicode="&#x2006;" horiz-adv-x="334" />
<glyph unicode="&#x2007;" horiz-adv-x="334" />
<glyph unicode="&#x2008;" horiz-adv-x="250" />
<glyph unicode="&#x2009;" horiz-adv-x="401" />
<glyph unicode="&#x200a;" horiz-adv-x="111" />
<glyph unicode="&#x2010;" horiz-adv-x="692" d="M82 471v209h526v-209h-526z" />
<glyph unicode="&#x2011;" horiz-adv-x="692" d="M82 471v209h526v-209h-526z" />
<glyph unicode="&#x2012;" horiz-adv-x="692" d="M82 471v209h526v-209h-526z" />
<glyph unicode="&#x2013;" d="M0 500v153h1024v-153h-1024z" />
<glyph unicode="&#x2014;" horiz-adv-x="2048" d="M0 500v153h2048v-153h-2048z" />
<glyph unicode="&#x2018;" horiz-adv-x="608" d="M115 915l182 506h213l-129 -506h-266z" />
<glyph unicode="&#x2019;" horiz-adv-x="608" d="M123 918l129 503h266l-182 -503h-213z" />
<glyph unicode="&#x201a;" horiz-adv-x="608" d="M78 -240l129 504h266l-182 -504h-213z" />
<glyph unicode="&#x201c;" horiz-adv-x="1067" d="M115 915l182 506h213l-129 -506h-266zM573 915l183 506h213l-127 -506h-269z" />
<glyph unicode="&#x201d;" horiz-adv-x="1067" d="M123 918l129 503h266l-182 -503h-213zM584 918l129 503h266l-182 -503h-213z" />
<glyph unicode="&#x201e;" horiz-adv-x="1067" d="M78 -240l129 504h266l-182 -504h-213zM537 -240l129 504h268l-182 -504h-215z" />
<glyph unicode="&#x2022;" horiz-adv-x="1208" d="M307 762q0 123 87 209t210 86q121 0 208 -86t87 -209q0 -121 -87 -209t-210 -88t-209 87t-86 210z" />
<glyph unicode="&#x2026;" horiz-adv-x="2048" d="M209 0v266h266v-266h-266zM891 0v266h266v-266h-266zM1575 0v266h266v-266h-266z" />
<glyph unicode="&#x202f;" horiz-adv-x="401" />
<glyph unicode="&#x2039;" horiz-adv-x="616" d="M68 537l254 417h227l-240 -417l238 -416h-228z" />
<glyph unicode="&#x203a;" horiz-adv-x="616" d="M68 121l239 416l-237 417h227l252 -417l-254 -416h-227z" />
<glyph unicode="&#x205f;" horiz-adv-x="501" />
<glyph unicode="&#x2122;" horiz-adv-x="1705" d="M207 1350v112h485v-112h-168v-435h-149v435h-168zM803 915v547h196l127 -332l123 332h197v-547h-135v410l-154 -410h-61l-158 410v-410h-135z" />
<glyph unicode="&#xe000;" horiz-adv-x="1034" d="M0 0v1034h1034v-1034h-1034z" />
</font>
</defs>
</svg>
